# xmcd
#
# Track frame offsets:
#	150
#	17853
#	35969
#	55064
#	72190
#	87583
#	104366
#	117691
#	135565
#	149326
#	163868
#	177088
#	192304
#	208636
#	223379
#	237791
#	253740
#	266432
#	283684
#	298460
#	313640
#	330732
#
# Disc length: 4618 seconds
#
# Revision: 0
# Processed by: cddbd v1.5.2PL0 Copyright (c) Steve Scherf et al.
# Submitted via: dBpowerAMP V4.0
#
DISCID=6b120816
DTITLE=Various Artist - ERG Nu Country Traxx Vol. 227 CAN
DYEAR=2013
DGENRE=Country
TTITLE0=Luke Bryan - Crash My Party
TTITLE1=Carrie Underwood - See You Again
TTITLE2=Small Town Pistols - Blame It On The Radio
TTITLE3=Blake Shelton ft. Pistol Annies - Boys 'Round Here
TTITLE4=Pistol Annies - Hush Hush
TTITLE5=Little Big Town - Your Side Of The Bed
TTITLE6=Kacey Musgraves - Blowin' Smoke
TTITLE7=Hunter Hayes - I Want Crazy
TTITLE8=Wynonna - Something You Can't Live Without
TTITLE9=One More Girl  - Run, Run, Run
TTITLE10=Hayden Panettiere - Hypnotizing
TTITLE11=High Valley - Trying To Believe
TTITLE12=James Wesley - Thank A Farmer
TTITLE13=Kix Brooks - Complete 360
TTITLE14=Autumn Hill - Can't Keep Waiting
TTITLE15=Casey James - The Good Life
TTITLE16=Eric Paslay - Friday Night
TTITLE17=Bryce Pallister - One Of These Days
TTITLE18=Rachel Holder - Five Days
TTITLE19=Randy Rogers Band - Fuzzy
TTITLE20=Scotty McCreery - See You Tonight
TTITLE21=Chris Cagle - Dance Baby Dance
EXTD=
EXTT0=
EXTT1=
EXTT2=
EXTT3=
EXTT4=
EXTT5=
EXTT6=
EXTT7=
EXTT8=
EXTT9=
EXTT10=
EXTT11=
EXTT12=
EXTT13=
EXTT14=
EXTT15=
EXTT16=
EXTT17=
EXTT18=
EXTT19=
EXTT20=
EXTT21=
PLAYORDER=
